<svg width="19" height="21" viewBox="0 0 19 21" fill="none" xmlns="http://www.w3.org/2000/svg">
<path d="M14.504 18.772C14.2253 19.2027 13.782 19.5447 13.174 19.798C12.5913 20.0767 12.034 20.2413 11.502 20.292C11.0713 19.7853 10.59 19.1013 10.058 18.24C9.526 17.3533 9.01933 16.3273 8.538 15.162C7.246 16.3273 5.954 17.3913 4.662 18.354C3.37 19.2913 2.16667 20.0893 1.052 20.748C0.773333 20.6973 0.545333 20.5453 0.368 20.292C0.190667 20.0387 0.0893334 19.7093 0.064 19.304C0.570667 19.0253 1.166 18.658 1.85 18.202C2.55933 17.746 3.26867 17.252 3.978 16.72C4.71267 16.1627 5.40933 15.5927 6.068 15.01C6.752 14.402 7.33467 13.8193 7.816 13.262C7.38533 12.2487 6.98 11.21 6.6 10.146C6.24533 9.05667 5.92867 8.018 5.65 7.03C5.39667 6.01667 5.194 5.10467 5.042 4.294C4.89 3.458 4.814 2.78667 4.814 2.28C4.814 1.92533 4.852 1.69733 4.928 1.596C5.02933 1.46933 5.24467 1.406 5.574 1.406C5.82733 1.406 6.13133 1.43133 6.486 1.482C6.866 1.53267 7.246 1.596 7.626 1.672C8.006 1.748 8.386 1.83667 8.766 1.938C9.146 2.014 9.47533 2.10267 9.754 2.204C9.70333 2.48267 9.678 2.72333 9.678 2.926C9.678 3.12867 9.678 3.42 9.678 3.8C9.678 4.788 9.754 5.80133 9.906 6.84C10.0833 7.85333 10.362 8.95533 10.742 10.146C11.7807 8.95533 12.7433 7.638 13.63 6.194C14.5167 4.72467 15.416 2.97667 16.328 0.949999C16.9613 1.07667 17.506 1.26667 17.962 1.52C18.418 1.748 18.7093 2.00133 18.836 2.28C18.5573 3.44533 17.772 4.91467 16.48 6.688C15.188 8.46133 13.5413 10.3487 11.54 12.35C11.8947 13.3127 12.3253 14.3387 12.832 15.428C13.3387 16.492 13.896 17.6067 14.504 18.772Z" fill="white"/>
</svg>
