<svg width="534" height="534" viewBox="0 0 534 534" fill="none" xmlns="http://www.w3.org/2000/svg">
<path d="M248.295 67.4668C254.623 56.978 267.067 52.9648 277.354 59.1367L277.402 59.166L277.454 59.1914C279.589 60.2587 281.108 61.2856 282.349 62.5264C283.589 63.7671 284.616 65.2864 285.684 67.4209L343.533 183.121L343.886 183.826L344.666 183.936L471.491 201.735L471.596 201.75H471.7C476.639 201.75 481.236 204.725 484.381 209.181C487.524 213.634 489.047 219.341 488.029 224.431L488 224.576V224.725C488 228.69 486.026 232.573 482.154 234.509L481.945 234.613L481.777 234.776L390.553 323.776L389.985 324.329L390.122 325.109L412.372 451.935C414.442 464.396 406.185 474.74 395.893 476.875H391.6C389.347 476.875 387.236 476.872 385.415 476.612C383.575 476.349 382.302 475.856 381.535 475.09L381.376 474.93L381.177 474.824L267.702 414.749L267 414.378L266.298 414.749L152.823 474.824L152.788 474.843L152.753 474.864C142.466 481.036 130.021 477.021 123.693 466.53C121.691 462.494 121.651 458.445 121.65 454.023L143.877 327.334L144.015 326.555L143.447 326.001L52.2217 237.001C43.9212 228.687 43.9257 216.295 52.2354 207.985L52.4082 207.813L52.5166 207.596C54.4 203.829 58.1921 201.75 64.5254 201.75H64.6299L64.7334 201.735L191.559 183.936L192.354 183.824L192.702 183.1L248.295 67.4668Z" stroke="yellow" stroke-width="10"/>
</svg>
