<svg width="28" height="29" viewBox="0 0 28 29" fill="none" xmlns="http://www.w3.org/2000/svg">
<path d="M10.9539 24.9861C10.9945 26.7234 12.4801 28.1138 14.336 28.1514L14.4122 28.152C16.2753 28.152 17.8254 26.7317 17.8676 24.9861L17.8698 24.8967H10.9518L10.9539 24.9861Z" fill="white"/>
<path d="M27.3366 20.4104C26.9649 20.1312 26.6461 19.8292 26.362 19.4868C26.1264 19.2031 25.9189 18.8977 25.7278 18.5532C25.4236 18.0035 25.1692 17.363 24.9502 16.5948C24.8149 16.1235 24.6865 15.583 24.5464 14.8936C24.4848 14.5926 24.4256 14.2863 24.3657 13.9761C24.2487 13.371 24.1275 12.7452 23.9815 12.1161C23.7075 10.9443 23.4135 10.0604 23.0282 9.25035C22.63 8.41278 22.1619 7.64926 21.6368 6.98054C21.2173 6.44774 20.7542 5.96707 20.2605 5.55254C19.4698 4.88701 18.5832 4.37472 17.6252 4.02959C17.3983 3.94766 17.1566 3.87271 16.9052 3.80613C17.1048 3.439 17.2091 3.03129 17.2082 2.61979C17.2082 2.26459 17.1341 1.92137 16.9879 1.5995C16.7761 1.13075 16.4261 0.732502 15.976 0.447958C15.5138 0.154946 14.9741 0 14.4048 0C14.0308 0 13.6663 0.0693903 13.3219 0.206191C12.8233 0.402596 12.3975 0.730412 12.0908 1.15434C11.778 1.58784 11.6126 2.09457 11.6126 2.6199C11.6126 2.97422 11.6869 3.31743 11.8329 3.64019C11.8586 3.69693 11.8879 3.75158 11.9188 3.80558C11.7875 3.83994 11.6573 3.87667 11.5292 3.9172C10.8667 4.1268 10.2344 4.41371 9.64957 4.7699C8.81431 5.27751 8.05537 5.93512 7.39406 6.72448C6.78442 7.44978 6.24576 8.29995 5.79311 9.25107C5.5544 9.75247 5.34686 10.2961 5.15864 10.9138C4.85687 11.9117 4.66271 12.9124 4.4914 13.7952L4.45723 13.9711C4.33106 14.6208 4.21188 15.2345 4.07057 15.8283C3.94569 16.3564 3.81712 16.8099 3.67757 17.2155C3.43874 17.909 3.15998 18.4909 2.8254 18.994C2.45629 19.5477 2.01767 20.0111 1.48459 20.4102C0.900426 20.8465 0.673454 21.5837 0.919917 22.2448C1.16755 22.9056 1.83579 23.3494 2.58275 23.3494H26.2389C26.9858 23.3494 27.6539 22.9056 27.9016 22.2448C28.1481 21.5837 27.9209 20.8465 27.3366 20.4104ZM7.92591 14.5452C8.04316 13.939 8.15394 13.3666 8.28169 12.8199C8.49352 11.9055 8.73182 11.1774 9.00999 10.5943C9.30835 9.96757 9.64851 9.41008 10.021 8.93749C10.2993 8.58405 10.5998 8.27108 10.9142 8.0077C11.3911 7.60687 11.8974 7.3127 12.4617 7.10844C13.0626 6.89262 13.7002 6.7876 14.4109 6.7876C15.0459 6.7876 15.6203 6.87129 16.1672 7.04311C16.5501 7.16413 16.9058 7.32573 17.2541 7.53643C17.7631 7.84655 18.2359 8.25937 18.6589 8.76336C19.0905 9.27757 19.4781 9.89334 19.811 10.5946C19.9819 10.9521 20.1334 11.3516 20.2743 11.8157C20.5098 12.5892 20.688 13.4723 20.8648 14.385L20.904 14.5871C21.0266 15.2207 21.1534 15.8759 21.3117 16.5443C21.4588 17.1645 21.6158 17.715 21.7913 18.2271C22.0205 18.8941 22.2824 19.4918 22.5898 20.0497H6.23314C6.64927 19.2926 6.99002 18.4414 7.27435 17.4486C7.47549 16.7442 7.62649 16.0439 7.73564 15.5122C7.80209 15.1852 7.86462 14.8622 7.92591 14.5452ZM15.2033 2.12042C15.3109 2.27025 15.3657 2.43845 15.3657 2.6199C15.3657 2.7407 15.3406 2.85787 15.2913 2.96828C15.2198 3.12641 15.0964 3.26624 14.9437 3.36185C14.8417 3.42613 14.7264 3.47072 14.6214 3.49294L14.4149 3.48887L14.2498 3.49123L14.2106 3.49442C14.1511 3.48271 14.0938 3.46649 14.0398 3.44532C13.8687 3.37681 13.723 3.26409 13.6184 3.11959C13.5106 2.96932 13.4559 2.80112 13.4559 2.6199C13.4559 2.49888 13.4811 2.3817 13.531 2.27151C13.6012 2.11398 13.7243 1.97438 13.878 1.87816C14.0368 1.77743 14.2162 1.72596 14.4109 1.7253C14.5379 1.7253 14.6629 1.749 14.7821 1.79551C14.9513 1.86254 15.1009 1.97779 15.2033 2.12042Z" fill="white"/>
</svg>
